<svg width="24" height="24" viewBox="0 0 24 24" fill="none" xmlns="http://www.w3.org/2000/svg">
<path d="M10.0469 17.6126L5.24609 12.8121L6.92552 11.1326L10.0469 14.254L17.074 7.22687L18.7534 8.9063L10.0469 17.6126Z" fill="white"/>
<path d="M11.9996 23.4C5.71363 23.4 0.599609 18.286 0.599609 12C0.599609 5.71399 5.71363 0.599976 11.9996 0.599976C18.2856 0.599976 23.3996 5.71399 23.3996 12C23.3996 18.286 18.2856 23.4 11.9996 23.4ZM11.9996 2.02498C6.49942 2.02498 2.02461 6.49978 2.02461 12C2.02461 17.5002 6.49942 21.975 11.9996 21.975C17.4998 21.975 21.9746 17.5002 21.9746 12C21.9746 6.49979 17.4998 2.02498 11.9996 2.02498Z" fill="white"/>
</svg>
